<?xml version="1.0" encoding="UTF-8" standalone="no"?>
<!DOCTYPE svg PUBLIC "-//W3C//DTD SVG 1.1//EN"
 "http://www.w3.org/Graphics/SVG/1.1/DTD/svg11.dtd">
<!-- Generated by graphviz version 2.38.0 (20140413.2041)
 -->
<!-- Title: controllers_diagram Pages: 1 -->
<svg width="381pt" height="454pt"
 viewBox="0.00 0.00 381.50 453.50" xmlns="http://www.w3.org/2000/svg" xmlns:xlink="http://www.w3.org/1999/xlink">
<g id="graph0" class="graph" transform="scale(1 1) rotate(0) translate(83.5 242)">
<title>controllers_diagram</title>
<polygon fill="none" stroke="none" points="-83.5,211.5 -83.5,-242 298,-242 298,211.5 -83.5,211.5"/>
<!-- _diagram_info -->
<g id="node1" class="node"><title>_diagram_info</title>
<text text-anchor="start" x="88" y="16.4" font-family="Times,serif" font-size="13.00">Controllers diagram</text>
<text text-anchor="start" x="88" y="30.4" font-family="Times,serif" font-size="13.00">Date: Dec 15 2017 &#45; 21:04</text>
<text text-anchor="start" x="88" y="44.4" font-family="Times,serif" font-size="13.00">Migration version: 20171115192917</text>
<text text-anchor="start" x="88" y="58.4" font-family="Times,serif" font-size="13.00">Generated by RailRoady 1.5.3</text>
<text text-anchor="start" x="88" y="72.4" font-family="Times,serif" font-size="13.00">http://railroady.prestonlee.com</text>
</g>
<!-- BillsController -->
<g id="node2" class="node"><title>BillsController</title>
<path fill="none" stroke="black" d="M91.5,-32.5C91.5,-32.5 192.5,-32.5 192.5,-32.5 198.5,-32.5 204.5,-38.5 204.5,-44.5 204.5,-44.5 204.5,-173.5 204.5,-173.5 204.5,-179.5 198.5,-185.5 192.5,-185.5 192.5,-185.5 91.5,-185.5 91.5,-185.5 85.5,-185.5 79.5,-179.5 79.5,-173.5 79.5,-173.5 79.5,-44.5 79.5,-44.5 79.5,-38.5 85.5,-32.5 91.5,-32.5"/>
<text text-anchor="middle" x="142" y="-170.3" font-family="Times,serif" font-size="14.00">BillsController</text>
<polyline fill="none" stroke="black" points="79.5,-162.5 204.5,-162.5 "/>
<text text-anchor="start" x="87.5" y="-147.3" font-family="Times,serif" font-size="14.00">create</text>
<text text-anchor="start" x="87.5" y="-132.3" font-family="Times,serif" font-size="14.00">destroy</text>
<text text-anchor="start" x="87.5" y="-117.3" font-family="Times,serif" font-size="14.00">howMuchHaveIPay</text>
<text text-anchor="start" x="87.5" y="-102.3" font-family="Times,serif" font-size="14.00">new</text>
<polyline fill="none" stroke="black" points="79.5,-94.5 204.5,-94.5 "/>
<polyline fill="none" stroke="black" points="79.5,-70.5 204.5,-70.5 "/>
<text text-anchor="start" x="87.5" y="-55.3" font-family="Times,serif" font-size="14.00">_layout</text>
<text text-anchor="start" x="87.5" y="-40.3" font-family="Times,serif" font-size="14.00">bill_params</text>
</g>
<!-- StaticPageController -->
<g id="node3" class="node"><title>StaticPageController</title>
<path fill="none" stroke="black" d="M-67.5,-144.5C-67.5,-144.5 37.5,-144.5 37.5,-144.5 43.5,-144.5 49.5,-150.5 49.5,-156.5 49.5,-156.5 49.5,-225.5 49.5,-225.5 49.5,-231.5 43.5,-237.5 37.5,-237.5 37.5,-237.5 -67.5,-237.5 -67.5,-237.5 -73.5,-237.5 -79.5,-231.5 -79.5,-225.5 -79.5,-225.5 -79.5,-156.5 -79.5,-156.5 -79.5,-150.5 -73.5,-144.5 -67.5,-144.5"/>
<text text-anchor="middle" x="-15" y="-222.3" font-family="Times,serif" font-size="14.00">StaticPageController</text>
<polyline fill="none" stroke="black" points="-79.5,-214.5 49.5,-214.5 "/>
<text text-anchor="start" x="-71.5" y="-199.3" font-family="Times,serif" font-size="14.00">Login</text>
<polyline fill="none" stroke="black" points="-79.5,-191.5 49.5,-191.5 "/>
<polyline fill="none" stroke="black" points="-79.5,-167.5 49.5,-167.5 "/>
<text text-anchor="start" x="-71.5" y="-152.3" font-family="Times,serif" font-size="14.00">_layout</text>
</g>
<!-- ApplicationController -->
<g id="node4" class="node"><title>ApplicationController</title>
<path fill="none" stroke="black" d="M92,207C92,207 204,207 204,207 210,207 216,201 216,195 216,195 216,125 216,125 216,119 210,113 204,113 204,113 92,113 92,113 86,113 80,119 80,125 80,125 80,195 80,195 80,201 86,207 92,207"/>
<text text-anchor="middle" x="148" y="128.2" font-family="Times,serif" font-size="14.00">ApplicationController</text>
<polyline fill="none" stroke="black" points="80,136 216,136 "/>
<polyline fill="none" stroke="black" points="80,160 216,160 "/>
<polyline fill="none" stroke="black" points="80,184 216,184 "/>
<text text-anchor="start" x="88" y="199.2" font-family="Times,serif" font-size="14.00">_layout</text>
</g>
<!-- ClientsController -->
<g id="node5" class="node"><title>ClientsController</title>
<path fill="none" stroke="black" d="M-51.5,143C-51.5,143 37.5,143 37.5,143 43.5,143 49.5,137 49.5,131 49.5,131 49.5,-103 49.5,-103 49.5,-109 43.5,-115 37.5,-115 37.5,-115 -51.5,-115 -51.5,-115 -57.5,-115 -63.5,-109 -63.5,-103 -63.5,-103 -63.5,131 -63.5,131 -63.5,137 -57.5,143 -51.5,143"/>
<text text-anchor="middle" x="-7" y="-99.8" font-family="Times,serif" font-size="14.00">ClientsController</text>
<polyline fill="none" stroke="black" points="-63.5,-92 49.5,-92 "/>
<text text-anchor="start" x="-55.5" y="-76.8" font-family="Times,serif" font-size="14.00">allclientWithBills</text>
<text text-anchor="start" x="-55.5" y="-61.8" font-family="Times,serif" font-size="14.00">create</text>
<text text-anchor="start" x="-55.5" y="-46.8" font-family="Times,serif" font-size="14.00">destroy</text>
<text text-anchor="start" x="-55.5" y="-31.8" font-family="Times,serif" font-size="14.00">edit</text>
<text text-anchor="start" x="-55.5" y="-16.8" font-family="Times,serif" font-size="14.00">index</text>
<text text-anchor="start" x="-55.5" y="-1.8" font-family="Times,serif" font-size="14.00">new</text>
<text text-anchor="start" x="-55.5" y="13.2" font-family="Times,serif" font-size="14.00">sayHello</text>
<text text-anchor="start" x="-55.5" y="28.2" font-family="Times,serif" font-size="14.00">show</text>
<text text-anchor="start" x="-55.5" y="43.2" font-family="Times,serif" font-size="14.00">total</text>
<text text-anchor="start" x="-55.5" y="58.2" font-family="Times,serif" font-size="14.00">update</text>
<polyline fill="none" stroke="black" points="-63.5,66 49.5,66 "/>
<polyline fill="none" stroke="black" points="-63.5,90 49.5,90 "/>
<text text-anchor="start" x="-55.5" y="105.2" font-family="Times,serif" font-size="14.00">_layout</text>
<text text-anchor="start" x="-55.5" y="120.2" font-family="Times,serif" font-size="14.00">client_params</text>
<text text-anchor="start" x="-55.5" y="135.2" font-family="Times,serif" font-size="14.00">set_client</text>
</g>
</g>
</svg>
