<?xml version="1.0" encoding="UTF-8" standalone="no"?>
<!DOCTYPE svg PUBLIC "-//W3C//DTD SVG 1.1//EN"
 "http://www.w3.org/Graphics/SVG/1.1/DTD/svg11.dtd">
<!-- Generated by graphviz version 2.38.0 (20140413.2041)
 -->
<!-- Title: models_diagram Pages: 1 -->
<svg width="544pt" height="333pt"
 viewBox="0.00 0.00 544.34 333.00" xmlns="http://www.w3.org/2000/svg" xmlns:xlink="http://www.w3.org/1999/xlink">
<g id="graph0" class="graph" transform="scale(1 1) rotate(0) translate(4 329)">
<title>models_diagram</title>
<polygon fill="none" stroke="none" points="-4,4 -4,-329 540.343,-329 540.343,4 -4,4"/>
<!-- _diagram_info -->
<g id="node1" class="node"><title>_diagram_info</title>
<text text-anchor="start" x="8" y="-281.1" font-family="Times,serif" font-size="13.00">Models diagram</text>
<text text-anchor="start" x="8" y="-267.1" font-family="Times,serif" font-size="13.00">Date: Dec 15 2017 &#45; 21:04</text>
<text text-anchor="start" x="8" y="-253.1" font-family="Times,serif" font-size="13.00">Migration version: 20171115192917</text>
<text text-anchor="start" x="8" y="-239.1" font-family="Times,serif" font-size="13.00">Generated by RailRoady 1.5.3</text>
<text text-anchor="start" x="8" y="-225.1" font-family="Times,serif" font-size="13.00">http://railroady.prestonlee.com</text>
</g>
<!-- Client -->
<g id="node2" class="node"><title>Client</title>
<path fill="none" stroke="black" d="M244.5,-188.5C244.5,-188.5 351.5,-188.5 351.5,-188.5 357.5,-188.5 363.5,-194.5 363.5,-200.5 363.5,-200.5 363.5,-312.5 363.5,-312.5 363.5,-318.5 357.5,-324.5 351.5,-324.5 351.5,-324.5 244.5,-324.5 244.5,-324.5 238.5,-324.5 232.5,-318.5 232.5,-312.5 232.5,-312.5 232.5,-200.5 232.5,-200.5 232.5,-194.5 238.5,-188.5 244.5,-188.5"/>
<text text-anchor="middle" x="298" y="-309.3" font-family="Times,serif" font-size="14.00">Client</text>
<polyline fill="none" stroke="black" points="232.5,-301.5 363.5,-301.5 "/>
<text text-anchor="start" x="240.5" y="-286.3" font-family="Times,serif" font-size="14.00">id :INTEGER</text>
<text text-anchor="start" x="240.5" y="-271.3" font-family="Times,serif" font-size="14.00">name :varchar</text>
<text text-anchor="start" x="240.5" y="-256.3" font-family="Times,serif" font-size="14.00">surename :varchar</text>
<text text-anchor="start" x="240.5" y="-241.3" font-family="Times,serif" font-size="14.00">fiscalCode :varchar</text>
<text text-anchor="start" x="240.5" y="-226.3" font-family="Times,serif" font-size="14.00">hourTariff :integer</text>
<text text-anchor="start" x="240.5" y="-211.3" font-family="Times,serif" font-size="14.00">created_at :datetime</text>
<text text-anchor="start" x="240.5" y="-196.3" font-family="Times,serif" font-size="14.00">updated_at :datetime</text>
</g>
<!-- Bill -->
<g id="node4" class="node"><title>Bill</title>
<path fill="none" stroke="black" d="M244.5,-0.5C244.5,-0.5 351.5,-0.5 351.5,-0.5 357.5,-0.5 363.5,-6.5 363.5,-12.5 363.5,-12.5 363.5,-139.5 363.5,-139.5 363.5,-145.5 357.5,-151.5 351.5,-151.5 351.5,-151.5 244.5,-151.5 244.5,-151.5 238.5,-151.5 232.5,-145.5 232.5,-139.5 232.5,-139.5 232.5,-12.5 232.5,-12.5 232.5,-6.5 238.5,-0.5 244.5,-0.5"/>
<text text-anchor="middle" x="298" y="-136.3" font-family="Times,serif" font-size="14.00">Bill</text>
<polyline fill="none" stroke="black" points="232.5,-128.5 363.5,-128.5 "/>
<text text-anchor="start" x="240.5" y="-113.3" font-family="Times,serif" font-size="14.00">id :INTEGER</text>
<text text-anchor="start" x="240.5" y="-98.3" font-family="Times,serif" font-size="14.00">note :varchar</text>
<text text-anchor="start" x="240.5" y="-83.3" font-family="Times,serif" font-size="14.00">Data :date</text>
<text text-anchor="start" x="240.5" y="-68.3" font-family="Times,serif" font-size="14.00">totalHour :integer</text>
<text text-anchor="start" x="240.5" y="-53.3" font-family="Times,serif" font-size="14.00">totalEuro :integer</text>
<text text-anchor="start" x="240.5" y="-38.3" font-family="Times,serif" font-size="14.00">client_id :integer</text>
<text text-anchor="start" x="240.5" y="-23.3" font-family="Times,serif" font-size="14.00">created_at :datetime</text>
<text text-anchor="start" x="240.5" y="-8.3" font-family="Times,serif" font-size="14.00">updated_at :datetime</text>
</g>
<!-- Client&#45;&gt;Bill -->
<g id="edge1" class="edge"><title>Client&#45;&gt;Bill</title>
<path fill="none" stroke="#e309cb" d="M298,-180.068C298,-174.04 298,-167.926 298,-161.84"/>
<ellipse fill="none" stroke="#e309cb" cx="298" cy="-184.271" rx="4" ry="4"/>
<polygon fill="#e309cb" stroke="#e309cb" points="298,-161.643 302.5,-151.643 298,-156.643 298,-151.643 298,-151.643 298,-151.643 298,-156.643 293.5,-151.643 298,-161.643 298,-161.643"/>
</g>
<!-- ApplicationRecord -->
<g id="node3" class="node"><title>ApplicationRecord</title>
<ellipse fill="none" stroke="black" cx="459" cy="-256.5" rx="77.1866" ry="18"/>
<text text-anchor="middle" x="459" y="-252.8" font-family="Times,serif" font-size="14.00">ApplicationRecord</text>
</g>
</g>
</svg>
