<?xml version="1.0" encoding="UTF-8" standalone="no"?>
<!DOCTYPE svg PUBLIC "-//W3C//DTD SVG 1.1//EN"
 "http://www.w3.org/Graphics/SVG/1.1/DTD/svg11.dtd">
<!-- Generated by graphviz version 2.38.0 (20140413.2041)
 -->
<!-- Title: models_diagram Pages: 1 -->
<svg width="477pt" height="158pt"
 viewBox="0.00 0.00 477.34 158.00" xmlns="http://www.w3.org/2000/svg" xmlns:xlink="http://www.w3.org/1999/xlink">
<g id="graph0" class="graph" transform="scale(1 1) rotate(0) translate(4 154)">
<title>models_diagram</title>
<polygon fill="none" stroke="none" points="-4,4 -4,-154 473.343,-154 473.343,4 -4,4"/>
<!-- _diagram_info -->
<g id="node1" class="node"><title>_diagram_info</title>
<text text-anchor="start" x="8" y="-135.6" font-family="Times,serif" font-size="13.00">Models diagram</text>
<text text-anchor="start" x="8" y="-121.6" font-family="Times,serif" font-size="13.00">Date: Dec 15 2017 &#45; 21:04</text>
<text text-anchor="start" x="8" y="-107.6" font-family="Times,serif" font-size="13.00">Migration version: 20171115192917</text>
<text text-anchor="start" x="8" y="-93.6" font-family="Times,serif" font-size="13.00">Generated by RailRoady 1.5.3</text>
<text text-anchor="start" x="8" y="-79.6" font-family="Times,serif" font-size="13.00">http://railroady.prestonlee.com</text>
</g>
<!-- Client -->
<g id="node2" class="node"><title>Client</title>
<ellipse fill="none" stroke="black" cx="264" cy="-111" rx="32.4942" ry="18"/>
<text text-anchor="middle" x="264" y="-107.3" font-family="Times,serif" font-size="14.00">Client</text>
</g>
<!-- Bill -->
<g id="node4" class="node"><title>Bill</title>
<ellipse fill="none" stroke="black" cx="264" cy="-18" rx="27" ry="18"/>
<text text-anchor="middle" x="264" y="-14.3" font-family="Times,serif" font-size="14.00">Bill</text>
</g>
<!-- Client&#45;&gt;Bill -->
<g id="edge1" class="edge"><title>Client&#45;&gt;Bill</title>
<path fill="none" stroke="#076873" d="M264,-84.7285C264,-72.7246 264,-58.3622 264,-46.1291"/>
<ellipse fill="none" stroke="#076873" cx="264" cy="-88.8836" rx="4" ry="4"/>
<polygon fill="#076873" stroke="#076873" points="264,-46.0397 268.5,-36.0396 264,-41.0397 264,-36.0397 264,-36.0397 264,-36.0397 264,-41.0397 259.5,-36.0397 264,-46.0397 264,-46.0397"/>
</g>
<!-- ApplicationRecord -->
<g id="node3" class="node"><title>ApplicationRecord</title>
<ellipse fill="none" stroke="black" cx="392" cy="-111" rx="77.1866" ry="18"/>
<text text-anchor="middle" x="392" y="-107.3" font-family="Times,serif" font-size="14.00">ApplicationRecord</text>
</g>
</g>
</svg>
